<svg xmlns="http://www.w3.org/2000/svg" width="34.983" height="46.542" viewBox="0 0 34.983 46.542"><defs><style>.a{fill:#fff;}</style></defs><g transform="translate(-62.605 0)"><path class="a" d="M88.194,0s4.112,10.059-13.51,16.816c-9.575,3.67-16.93,13.078-8.149,27.61.727-6.5,3.846-20.817,17.254-24.086,0,0-12.48,4.667-13.582,25.79,6.413.9,21.452,1.505,25.918-11.546C102.021,17.34,88.194,0,88.194,0Z" transform="translate(0 0)"/><path class="a" d="M70.213,46.042A39.814,39.814,0,0,0,95.1,12.687,50.794,50.794,0,0,0,88.194,0s4.112,10.059-13.51,16.816c-9.575,3.67-16.93,13.078-8.149,27.61.727-6.5,3.846-20.817,17.254-24.086C83.789,20.34,71.346,24.995,70.213,46.042Z" transform="translate(0 0)"/><circle class="a" cx="1.273" cy="1.273" r="1.273" transform="translate(63.904 14.605)"/><g transform="translate(66.086 3.697)"><circle class="a" cx="0.909" cy="0.909" r="0.909" transform="translate(2.182 9.999)"/><circle class="a" cx="2.273" cy="2.273" r="2.273" transform="translate(0)"/><circle class="a" cx="0.727" cy="0.727" r="0.727" transform="translate(8.545 6.727)"/><circle class="a" cx="2.091" cy="2.091" r="2.091" transform="translate(13.272 1.273)"/></g></g></svg>