<svg xmlns="http://www.w3.org/2000/svg" width="38.863" height="38.863" viewBox="0 0 38.863 38.863"><defs><style>.a{fill:#fff;}</style></defs><path class="a" d="M105.567,21.018a22.886,22.886,0,0,1,4.122-.157A14.084,14.084,0,0,1,112.78.01a11.8,11.8,0,0,0-7.213,21.008Z" transform="translate(-93.433 -0.009)"/><path class="a" d="M204.287,20.852h3.074a4.6,4.6,0,0,1,4.209,2.741A11.8,11.8,0,1,0,211.836,0C200.8,0,195.888,13.82,204.287,20.852Zm6.406-15.1v-.97a1.143,1.143,0,1,1,2.286,0v.97a4.105,4.105,0,0,1,1.608.29h0a4.251,4.251,0,0,1,1.536,1.047,1.144,1.144,0,1,1-1.668,1.565,1.9,1.9,0,0,0-1.354-.614h-2.627a1.3,1.3,0,0,0,0,2.608H213.2a3.6,3.6,0,1,1-.219,7.186v.97a1.143,1.143,0,1,1-2.286,0v-.97a4.275,4.275,0,0,1-2.717-.764,1.144,1.144,0,0,1,1.3-1.881,1.925,1.925,0,0,0,1.055.356H213.2a1.3,1.3,0,0,0,0-2.608h-2.723a3.6,3.6,0,1,1,.219-7.186Z" transform="translate(-184.808)"/><path class="a" d="M38.12,309.023a2.539,2.539,0,0,0-3.594,0L30.8,312.757a2.18,2.18,0,0,1-1.54.639H19.548a2.548,2.548,0,0,1,0-5.1h2.957a2.345,2.345,0,0,0,2.361-2.262,2.315,2.315,0,0,0-2.312-2.37h-8.5A9.5,9.5,0,0,0,6.746,307.1l-1.378,1.751a.381.381,0,0,1-.3.145H.762a.763.763,0,0,0-.762.763v8.863a.762.762,0,0,0,.762.763H30.2a2.788,2.788,0,0,0,1.973-.818l5.945-5.951a2.546,2.546,0,0,0,0-3.6Z" transform="translate(0 -280.526)"/></svg>