<svg xmlns="http://www.w3.org/2000/svg" width="74.036" height="89.258" viewBox="0 0 74.036 89.258"><defs><style>.a{fill:#72b7e6;}</style></defs><g transform="translate(-36.238 0)"><g transform="translate(36.238 0)"><g transform="translate(38.881 57.36)"><path class="a" d="M225.568,275.039a4.244,4.244,0,0,0-1.191-.866,14.37,14.37,0,0,0-3.017-1.066v7.984c1.672-.189,3.593-.8,4.471-2.357h0a3.648,3.648,0,0,0,.332-2.492A2.507,2.507,0,0,0,225.568,275.039Z" transform="translate(-221.36 -273.108)"/></g><g transform="translate(43.343 62.987)"><path class="a" d="M242.6,299.915l.009-.015h0Z" transform="translate(-242.604 -299.9)"/></g><g transform="translate(30.497 44.548)"><path class="a" d="M181.98,214.086a2.994,2.994,0,0,0-.518,1.4,3.366,3.366,0,0,0,.171,1.551,2.489,2.489,0,0,0,.966,1.063,7.545,7.545,0,0,0,1.436.741c.419.169.89.33,1.4.486v-7.225A5.514,5.514,0,0,0,181.98,214.086Z" transform="translate(-181.441 -212.106)"/></g><g transform="translate(43.352 62.928)"><path class="a" d="M242.68,299.619l-.033.059h0Z" transform="translate(-242.647 -299.619)"/></g><g transform="translate(43.427 62.85)"><path class="a" d="M243,299.248Z" transform="translate(-243.004 -299.244)"/></g><g transform="translate(0 0)"><path class="a" d="M77.932,19.421C84.722,13.717,89.259.867,86.467.305,82.757-.442,74.7,2.834,70.807,3.411c-5.523.667-11.538-5.989-14.915-2.279C53.147,4.148,57.86,15.118,65.235,19.9c-22,10.813-52.925,65.1,1.023,69.034C140.9,94.381,103.526,29.958,77.932,19.421Zm6.411,42.81a7.848,7.848,0,0,1-3.028,5.329,11.571,11.571,0,0,1-6.2,2.189v2.338a2.2,2.2,0,1,1-4.391,0V69.532c-.378-.072-.754-.157-1.125-.259a10.778,10.778,0,0,1-5.371-3.3,9.681,9.681,0,0,1-1.655-2.736c-.1-.261-.194-.526-.274-.795a4.076,4.076,0,0,1-.173-.743,2.2,2.2,0,0,1,4.268-.911c.084.253.14.512.234.763a4.892,4.892,0,0,0,.338.721,5.6,5.6,0,0,0,.964,1.234,6.535,6.535,0,0,0,2.794,1.522V56.336a15.626,15.626,0,0,1-5.757-2.488,6.7,6.7,0,0,1-1.944-2.335,7.308,7.308,0,0,1-.678-3.143,7.489,7.489,0,0,1,.658-3.183,7.759,7.759,0,0,1,1.8-2.472,11,11,0,0,1,5.92-2.624V37.664a2.2,2.2,0,1,1,4.391,0v2.414q.431.054.858.131a10.845,10.845,0,0,1,5.733,2.782,8.378,8.378,0,0,1,1.755,2.522,8.046,8.046,0,0,1,.31.8,4.879,4.879,0,0,1,.206.783,2.2,2.2,0,0,1-4.221,1.11c-.092-.24-.138-.494-.232-.733a3.868,3.868,0,0,0-.359-.691A4.188,4.188,0,0,0,78.132,45.7a7.117,7.117,0,0,0-3.014-1.178v8.313a27.876,27.876,0,0,1,3.75,1.113,8.767,8.767,0,0,1,4.577,3.584c-.155-.273-.307-.538.005.009s.16.281.006.012A7.832,7.832,0,0,1,84.343,62.231Z" transform="translate(-36.238 0)"/></g><g transform="translate(43.287 63.044)"><path class="a" d="M242.37,300.169l-.033.058Z" transform="translate(-242.337 -300.169)"/></g></g></g></svg>