<svg xmlns="http://www.w3.org/2000/svg" width="72.001" height="76.801" viewBox="0 0 72.001 76.801"><defs><style>.a{fill:#72b7e6;}</style></defs><g transform="translate(-16)"><g transform="translate(16)"><path class="a" d="M64,9.6V4.8A4.8,4.8,0,0,0,59.2,0H20.8A4.808,4.808,0,0,0,16,4.8V72a4.8,4.8,0,0,0,4.8,4.8H59.2A4.8,4.8,0,0,0,64,72V62.4H20.8V9.6Z" transform="translate(-16)"/></g><g transform="translate(44.8 14.4)"><path class="a" d="M229.6,96a21.6,21.6,0,1,0,21.6,21.6A21.6,21.6,0,0,0,229.6,96Zm2.4,30.831v2.77a2.4,2.4,0,0,1-4.8,0v-2.731a7.749,7.749,0,0,1-2.15-.984,2.4,2.4,0,0,1,2.669-4,3.359,3.359,0,0,0,1.882.514c1.469,0,2.4-.787,2.4-1.2s-.931-1.2-2.4-1.2c-3.97,0-7.2-2.693-7.2-6,0-2.606,2.011-4.8,4.8-5.63V105.6a2.4,2.4,0,1,1,4.8,0v2.731a7.749,7.749,0,0,1,2.15.984,2.4,2.4,0,0,1-2.669,3.994,3.4,3.4,0,0,0-1.882-.509c-1.469,0-2.4.787-2.4,1.2s.931,1.2,2.4,1.2c3.97,0,7.2,2.693,7.2,6C236.8,123.807,234.789,126.005,232,126.831Z" transform="translate(-208 -96)"/></g></g></svg>