<svg xmlns="http://www.w3.org/2000/svg" width="42.762" height="48.733" viewBox="0 0 42.762 48.733"><defs><style>.a{fill:rgba(0,0,0,0);}.b{fill:#fff;}</style></defs><rect class="a" width="42" height="42"/><g transform="translate(2.5 3.267)"><path class="b" d="M129.023,400.6H114.756a2.857,2.857,0,0,0-2.853,2.853v7.039h19.974v-7.039a2.857,2.857,0,0,0-2.853-2.853Zm0,0" transform="translate(-101.509 -365.028)"/><path class="b" d="M162.019,305.695a1.335,1.335,0,0,0-.847-.386v5.8H172.4v-5.8a1.335,1.335,0,0,0-.848.387,6.738,6.738,0,0,1-9.529,0Zm0,0" transform="translate(-146.404 -278.197)"/><path class="b" d="M317.57,308.2v5.661a5.526,5.526,0,0,1,4.375,5.4V326.3h4.47a1.333,1.333,0,0,0,1.332-1.332v-4.28A12.769,12.769,0,0,0,317.57,308.2Zm0,0" transform="translate(-288.913 -280.83)"/><path class="b" d="M26.747,308.2A12.769,12.769,0,0,0,16.57,320.685v4.28A1.332,1.332,0,0,0,17.9,326.3h4.47v-7.039a5.526,5.526,0,0,1,4.375-5.4Zm0,0" transform="translate(-14.643 -280.831)"/><path class="b" d="M38.93,6.85H31.695A7.045,7.045,0,0,0,24.661,0H16.1A7.046,7.046,0,0,0,9.066,6.85H1.832A1.333,1.333,0,0,0,.5,8.183a4.374,4.374,0,0,0,4.373,4.373H35.889a4.374,4.374,0,0,0,4.373-4.373A1.333,1.333,0,0,0,38.93,6.85Zm0,0" transform="translate(0 0)"/><path class="b" d="M132.754,171.778V171.4H112.969v.379a9.892,9.892,0,0,0,19.785,0Zm0,0" transform="translate(-102.481 -156.178)"/></g></svg>