<svg xmlns="http://www.w3.org/2000/svg" width="97.852" height="84.561" viewBox="0 0 97.852 84.561"><defs><style>.a{opacity:0.3;}.b{fill:#fff;}</style></defs><g class="a"><path class="b" d="M99.5,7.164H103v-3.5h59.5v3.5H166V41.64a7.729,7.729,0,0,1,3.5-.35V.165H96v34.65a14.294,14.294,0,0,1,3.5-2.1Zm0,0" transform="translate(-75 -0.165)"/><path class="b" d="M144.45,83.089l4.025,4.025a1.859,1.859,0,0,0,2.1.35L187.5,68.214V35.664a3.51,3.51,0,0,1-3.5-3.5H131.5a3.51,3.51,0,0,1-3.5,3.5V56.839a13.953,13.953,0,0,1,11.725,4.025l7.349,7.35a8.986,8.986,0,0,1,0,12.425ZM142,53.339l-3.5-.35a19.1,19.1,0,0,1,21-17.149c10.5,1.225,18.375,10.5,17.149,21a18.892,18.892,0,0,1-18.9,17.325v-3.5a15.75,15.75,0,1,0,0-31.5A15.9,15.9,0,0,0,142,53.339Zm14,12.075v-3.5h3.5v3.5Zm0-21v3.5h-3.5v-3.5Zm-8.4,18.2,15.75-19.25,2.625,2.275-15.75,19.25Zm0,0" transform="translate(-100 -25.164)"/><path class="b" d="M0,193.914v28a1.653,1.653,0,0,0,1.75,1.75H14v-31.5H1.75A1.653,1.653,0,0,0,0,193.914Zm0,0" transform="translate(0 -150.164)"/><path class="b" d="M158.225,170.783a4.687,4.687,0,0,0-4.55-.175l-39.025,20.3a5.276,5.276,0,0,1-6.125-.875l-17.5-17.5,2.451-2.451L104.5,181.108l2.625-2.625a5.074,5.074,0,0,0,0-7.35l-7.35-7.349a10.67,10.67,0,0,0-14.875,0L80,168.508v30.45l23.45,10.5a8.624,8.624,0,0,0,8.225-.7l46.55-30.1a4.734,4.734,0,0,0,1.4-6.475,2.71,2.71,0,0,0-1.4-1.4Zm0,0" transform="translate(-62.501 -125.633)"/></g></svg>