<svg xmlns="http://www.w3.org/2000/svg" width="82.417" height="79.114" viewBox="0 0 82.417 79.114"><defs><style>.a{fill:#72b7e6;}</style></defs><path class="a" d="M164,32.9l32.856-8.968-1.74-3.517a4.63,4.63,0,0,0-6.2-2.092L159.5,32.9Z" transform="translate(-144.738 -17.84)"/><path class="a" d="M354.513,86.46a4.626,4.626,0,0,0-1.222.167l-7.718,2.11L322,95.169h38.418l-1.444-5.294A4.619,4.619,0,0,0,354.513,86.46Z" transform="translate(-292.198 -80.109)"/><path class="a" d="M73.041,215.56H4.637a4.634,4.634,0,0,0-4.47,3.415A4.791,4.791,0,0,0,0,220.188v51.56a4.629,4.629,0,0,0,4.628,4.628h68.4a4.629,4.629,0,0,0,4.628-4.628V258.837H50.2a7.872,7.872,0,0,1-7.867-7.867V240.678a7.855,7.855,0,0,1,7.858-7.858H77.66V220.188A4.615,4.615,0,0,0,73.041,215.56Z" transform="translate(0 -197.261)"/><path class="a" d="M527.736,437.973a4.628,4.628,0,0,0-1.62-.963,4.727,4.727,0,0,0-1.5-.25H497.028a4.629,4.629,0,0,0-4.628,4.628v10.3a4.629,4.629,0,0,0,4.628,4.628h27.589a4.716,4.716,0,0,0,1.5-.25,4.49,4.49,0,0,0,1.62-.962,4.612,4.612,0,0,0,1.509-3.415v-10.3A4.612,4.612,0,0,0,527.736,437.973ZM506.69,447.46a2.315,2.315,0,0,1-2.314,2.314H502.84a2.315,2.315,0,0,1-2.314-2.314v-1.536a2.266,2.266,0,0,1,.889-1.814,2.337,2.337,0,0,1,1.425-.5h1.536a2.315,2.315,0,0,1,2.314,2.314v1.536Z" transform="translate(-446.828 -397.989)"/></svg>